<svg xmlns="http://www.w3.org/2000/svg" width="24" height="24" viewBox="0 0 24 24" fill="none">
<path d="M11 3.75H13C14.9068 3.75 16.2615 3.75159 17.2892 3.88976C18.2952 4.02502 18.8749 4.27869 19.2981 4.7019C19.7213 5.12511 19.975 5.70476 20.1102 6.71085C20.2484 7.73851 20.25 9.09318 20.25 11V13C20.25 14.9068 20.2484 16.2615 20.1102 17.2892C19.975 18.2952 19.7213 18.8749 19.2981 19.2981C18.8749 19.7213 18.2952 19.975 17.2892 20.1102C16.2615 20.2484 14.9068 20.25 13 20.25H11C9.09318 20.25 7.73851 20.2484 6.71085 20.1102C5.70476 19.975 5.12511 19.7213 4.7019 19.2981C4.27869 18.8749 4.02502 18.2952 3.88976 17.2892C3.75159 16.2615 3.75 14.9068 3.75 13V11C3.75 9.09318 3.75159 7.73851 3.88976 6.71085C4.02502 5.70476 4.27869 5.12511 4.7019 4.7019C5.12511 4.27869 5.70476 4.02502 6.71085 3.88976C7.73851 3.75159 9.09318 3.75 11 3.75Z" stroke="#222222" stroke-width="1.5" stroke-linecap="round"/>
<path d="M12 8L12 16" stroke="#222222" stroke-width="1.2" stroke-linejoin="round"/>
<path d="M16 12L8 12" stroke="#222222" stroke-width="1.2" stroke-linejoin="round"/>
</svg>