<svg xmlns="http://www.w3.org/2000/svg" width="24" height="24" viewBox="0 0 24 24" fill="none">
<path d="M12 4L12.4377 3.58964L12 3.12273L11.5623 3.58964L12 4ZM11.4 10C11.4 10.3314 11.6686 10.6 12 10.6C12.3314 10.6 12.6 10.3314 12.6 10H11.4ZM15.4377 6.78964L12.4377 3.58964L11.5623 4.41036L14.5623 7.61036L15.4377 6.78964ZM11.5623 3.58964L8.56228 6.78964L9.43772 7.61036L12.4377 4.41036L11.5623 3.58964ZM11.4 4V10H12.6V4H11.4Z" fill="#222222"/>
<path d="M20 12L20.4104 12.4377L20.8773 12L20.4104 11.5623L20 12ZM14 11.4C13.6686 11.4 13.4 11.6686 13.4 12C13.4 12.3314 13.6686 12.6 14 12.6L14 11.4ZM17.2104 15.4377L20.4104 12.4377L19.5896 11.5623L16.3896 14.5623L17.2104 15.4377ZM20.4104 11.5623L17.2104 8.56228L16.3896 9.43772L19.5896 12.4377L20.4104 11.5623ZM20 11.4L14 11.4L14 12.6L20 12.6L20 11.4Z" fill="#222222"/>
<path d="M12 20L12.4377 20.4104L12 20.8773L11.5623 20.4104L12 20ZM11.4 14C11.4 13.6686 11.6686 13.4 12 13.4C12.3314 13.4 12.6 13.6686 12.6 14H11.4ZM15.4377 17.2104L12.4377 20.4104L11.5623 19.5896L14.5623 16.3896L15.4377 17.2104ZM11.5623 20.4104L8.56228 17.2104L9.43772 16.3896L12.4377 19.5896L11.5623 20.4104ZM11.4 20V14H12.6V20H11.4Z" fill="#222222"/>
<path d="M4 12L3.58964 12.4377L3.12273 12L3.58964 11.5623L4 12ZM10 11.4C10.3314 11.4 10.6 11.6686 10.6 12C10.6 12.3314 10.3314 12.6 10 12.6L10 11.4ZM6.78963 15.4377L3.58964 12.4377L4.41036 11.5623L7.61036 14.5623L6.78963 15.4377ZM3.58964 11.5623L6.78964 8.56228L7.61036 9.43772L4.41036 12.4377L3.58964 11.5623ZM4 11.4L10 11.4L10 12.6L4 12.6L4 11.4Z" fill="#222222"/>
</svg>