<svg width="21" height="24" viewBox="0 0 21 24" fill="none" xmlns="http://www.w3.org/2000/svg">
<g clip-path="url(#clip0_3_2)">
<mask id="mask0_3_2" style="mask-type:luminance" maskUnits="userSpaceOnUse" x="0" y="0" width="85" height="24">
<path d="M84.375 0H0V24H84.375V0Z" fill="white"/>
</mask>
<g mask="url(#mask0_3_2)">
<path d="M14.1413 2.78581C14.1413 2.78581 13.8766 2.8611 13.4418 2.99287C13.3662 2.74816 13.2528 2.46581 13.1015 2.16463C12.61 1.22346 11.8727 0.715219 11.003 0.715219C10.9463 0.715219 10.8896 0.715219 10.814 0.734044C10.7951 0.696398 10.7572 0.677573 10.7383 0.639926C10.3602 0.225808 9.86869 0.0375729 9.28264 0.0563964C8.1483 0.0940438 7.01396 0.903454 6.1065 2.35287C5.46371 3.36934 4.97216 4.64933 4.83983 5.64698C3.53537 6.04226 2.6279 6.32464 2.609 6.34346C1.94731 6.5505 1.9284 6.56933 1.85278 7.19051C1.79606 7.6611 0.0567627 20.9129 0.0567627 20.9129L14.3493 23.3787V2.76698C14.2359 2.76698 14.1791 2.78581 14.1413 2.78581ZM10.8328 3.80228C10.0767 4.02818 9.2448 4.29169 8.43188 4.53641C8.65875 3.65169 9.11246 2.76698 9.64181 2.18346C9.84979 1.9764 10.1334 1.73169 10.4548 1.5811C10.7762 2.25875 10.8518 3.1811 10.8328 3.80228ZM9.28264 0.828162C9.54731 0.828162 9.77415 0.884633 9.96322 0.997572C9.66071 1.14816 9.35824 1.39287 9.07466 1.67522C8.35624 2.44698 7.80799 3.65169 7.58111 4.79993C6.90052 5.007 6.21994 5.21404 5.59605 5.40229C6.01196 3.59522 7.54331 0.865808 9.28264 0.828162ZM7.0896 11.1811C7.1652 12.3858 10.3602 12.6494 10.5493 15.4917C10.6816 17.7317 9.35824 19.2564 7.44877 19.3694C5.14234 19.5199 3.87566 18.1646 3.87566 18.1646L4.36721 16.094C4.36721 16.094 5.63389 17.054 6.65475 16.9788C7.31644 16.9411 7.56221 16.3952 7.54331 16.0188C7.44877 14.4376 4.83983 14.5317 4.66969 11.934C4.51845 9.75053 5.95526 7.54815 9.13136 7.34111C10.3602 7.26581 10.9841 7.56698 10.9841 7.56698L10.2657 10.2776C10.2657 10.2776 9.45277 9.90109 8.48857 9.97639C7.0896 10.0705 7.0707 10.9552 7.0896 11.1811ZM11.5891 3.5764C11.5891 3.01169 11.5135 2.20228 11.2488 1.52463C12.1184 1.69404 12.5343 2.65404 12.7234 3.23757C12.3831 3.33169 12.005 3.44463 11.5891 3.5764Z" fill="#8d8d8d"/>
<path d="M14.7839 23.3411L20.7203 21.8728C20.7203 21.8728 18.168 4.68697 18.1491 4.57402C18.1302 4.46111 18.0357 4.38581 17.9412 4.38581C17.8466 4.38581 16.1829 4.34816 16.1829 4.34816C16.1829 4.34816 15.162 3.36933 14.7839 2.99286V23.3411Z" fill="#8d8d8d"/>
<path d="M10.9687 7.57984L10.243 10.2857C10.243 10.2857 9.43304 9.91598 8.47116 9.98318C7.05366 10.0672 7.05366 10.958 7.05366 11.1765C7.13804 12.3866 10.3274 12.6555 10.513 15.4958C10.648 17.7311 9.33179 19.2605 7.40804 19.3782C5.11304 19.4958 3.84741 18.1513 3.84741 18.1513L4.33679 16.084C4.33679 16.084 5.61929 17.042 6.63179 16.9748C7.28991 16.9412 7.54304 16.3866 7.50929 16.0168C7.40804 14.437 4.80929 14.5378 4.64054 11.9328C4.50554 9.7479 5.93991 7.5462 9.11241 7.34453C10.3443 7.26049 10.9687 7.57984 10.9687 7.57984Z" fill="white"/>
</g>
</g>
<defs>
<clipPath id="clip0_3_2">
<rect width="21" height="24" fill="white"/>
</clipPath>
</defs>
</svg>
